ffmpeg started on 2025-07-06 at 17:57:30
Report written to "D:\Convert\FFMetrics\reports\psnr_report-6.txt"
Log level: 32
Command line:
ffmpeg -hide_banner -nostdin -i "G:\\\xc0\xed\xe8\xec\xe5\\\xce\xed\xe3\xee\xe8\xed\xe3\xe8\\!_37_\xc7\xe8\xec\xe0_2025\\JamClub\\\xc3\xee\xeb\xf3\xe1\xe0\xff \xf8\xea\xe0\xf2\xf3\xeb\xea\xe0\\JamClub_Ao_no_Hako_14_1080p_HEVC.mkv" -i "G:\\\xc0\xed\xe8\xec\xe5\\\xce\xed\xe3\xee\xe8\xed\xe3\xe8\\!_37_\xc7\xe8\xec\xe0_2025\\JamClub\\\xc3\xee\xeb\xf3\xe1\xe0\xff \xf8\xea\xe0\xf2\xf3\xeb\xea\xe0\\JamClub_Ao_no_Hako_14_1080p.mp4" -lavfi "[0:v]settb=AVTB,setpts=PTS-STARTPTS,format=pix_fmts=yuv420p10,fps=24000/1001,scale=1920:1080:flags=bicubic[main];[1:v]settb=AVTB,setpts=PTS-STARTPTS,format=pix_fmts=yuv420p,fps=24000/1001,scale=1920:1080:flags=bicubic[ref];[main][ref]psnr=eof_action=endall:stats_file='D\\:/Convert/FFMetrics/logs/psnr_logfile-6.txt'" -f null -
Input #0, matroska,webm, from 'G:\Аниме\Онгоинги\!_37_Зима_2025\JamClub\Голубая шкатулка\JamClub_Ao_no_Hako_14_1080p_HEVC.mkv':
  Metadata:
    COMPATIBLE_BRANDS: isomiso2avc1mp41
    MAJOR_BRAND     : isom
    MINOR_VERSION   : 512
    ENCODER         : Lavf61.7.100
  Duration: 00:23:59.25, start: -0.001000, bitrate: 1211 kb/s
  Stream #0:0: Video: hevc (Main 10), yuv420p10le(tv, bt709, progressive), 1920x1080 [SAR 1:1 DAR 16:9], 23.98 fps, 23.98 tbr, 1k tbn (default)
      Metadata:
        HANDLER_NAME    : VideoHandler
        VENDOR_ID       : [0][0][0][0]
        ENCODER         : Lavc61.19.100 libx265
        BPS             : 1014147
        DURATION        : 00:23:59.187708333
        NUMBER_OF_FRAMES: 34506
        NUMBER_OF_BYTES : 182443438
        _STATISTICS_WRITING_APP: mkvpropedit v66.0.0 ('Josie') 64-bit
        _STATISTICS_WRITING_DATE_UTC: 2025-07-06 09:28:08
        _STATISTICS_TAGS: BPS DURATION NUMBER_OF_FRAMES NUMBER_OF_BYTES
  Stream #0:1(eng): Audio: aac (LC), 48000 Hz, stereo, fltp (default)
      Metadata:
        HANDLER_NAME    : SoundHandler
        VENDOR_ID       : [0][0][0][0]
        ENCODER         : Lavc61.19.100 aac
        BPS             : 193023
        DURATION        : 00:23:59.213000000
        NUMBER_OF_FRAMES: 67464
        NUMBER_OF_BYTES : 34725275
        _STATISTICS_WRITING_APP: mkvpropedit v66.0.0 ('Josie') 64-bit
        _STATISTICS_WRITING_DATE_UTC: 2025-07-06 09:28:08
        _STATISTICS_TAGS: BPS DURATION NUMBER_OF_FRAMES NUMBER_OF_BYTES
Input #1, mov,mp4,m4a,3gp,3g2,mj2, from 'G:\Аниме\Онгоинги\!_37_Зима_2025\JamClub\Голубая шкатулка\JamClub_Ao_no_Hako_14_1080p.mp4':
  Metadata:
    major_brand     : isom
    minor_version   : 512
    compatible_brands: isomiso2avc1mp41
    encoder         : Lavf60.16.100
  Duration: 00:23:59.23, start: 0.000000, bitrate: 4474 kb/s
  Stream #1:0[0x1](und): Video: h264 (High) (avc1 / 0x31637661), yuv420p(progressive), 1920x1080 [SAR 1:1 DAR 16:9], 4276 kb/s, 23.98 fps, 23.98 tbr, 90k tbn (default)
      Metadata:
        handler_name    : VideoHandler
        vendor_id       : [0][0][0][0]
  Stream #1:1[0x2](eng): Audio: aac (LC) (mp4a / 0x6134706D), 48000 Hz, stereo, fltp, 191 kb/s (default)
      Metadata:
        handler_name    : SoundHandler
        vendor_id       : [0][0][0][0]
Stream mapping:
  Stream #0:0 (hevc) -> settb:default
  Stream #1:0 (h264) -> settb:default
  psnr:default -> Stream #0:0 (wrapped_avframe)
  Stream #0:1 -> #0:1 (aac (native) -> pcm_s16le (native))
Output #0, null, to 'pipe:':
  Metadata:
    COMPATIBLE_BRANDS: isomiso2avc1mp41
    MAJOR_BRAND     : isom
    MINOR_VERSION   : 512
    encoder         : Lavf61.7.100
  Stream #0:0: Video: wrapped_avframe, yuv420p10le(tv, bt709, progressive), 1920x1080 [SAR 1:1 DAR 16:9], q=2-31, 200 kb/s, 23.98 fps, 23.98 tbn
      Metadata:
        encoder         : Lavc61.19.100 wrapped_avframe
  Stream #0:1(eng): Audio: pcm_s16le, 48000 Hz, stereo, s16, 1536 kb/s (default)
      Metadata:
        HANDLER_NAME    : SoundHandler
        VENDOR_ID       : [0][0][0][0]
        _STATISTICS_TAGS: BPS DURATION NUMBER_OF_FRAMES NUMBER_OF_BYTES
        BPS             : 193023
        DURATION        : 00:23:59.213000000
        NUMBER_OF_FRAMES: 67464
        NUMBER_OF_BYTES : 34725275
        _STATISTICS_WRITING_APP: mkvpropedit v66.0.0 ('Josie') 64-bit
        _STATISTICS_WRITING_DATE_UTC: 2025-07-06 09:28:08
        encoder         : Lavc61.19.100 pcm_s16le
frame=  109 fps=0.0 q=-0.0 size=N/A time=00:00:04.54 bitrate=N/A speed=8.82x    frame=  270 fps=259 q=-0.0 size=N/A time=00:00:11.26 bitrate=N/A speed=10.8x    frame=  465 fps=299 q=-0.0 size=N/A time=00:00:19.39 bitrate=N/A speed=12.5x    frame=  697 fps=337 q=-0.0 size=N/A time=00:00:29.07 bitrate=N/A speed=14.1x    frame=  924 fps=359 q=-0.0 size=N/A time=00:00:38.53 bitrate=N/A speed=  15x    frame= 1152 fps=371 q=-0.0 size=N/A time=00:00:48.04 bitrate=N/A speed=15.5x    frame= 1388 fps=384 q=-0.0 size=N/A time=00:00:57.89 bitrate=N/A speed=  16x    frame= 1596 fps=387 q=-0.0 size=N/A time=00:01:06.56 bitrate=N/A speed=16.1x    frame= 1809 fps=390 q=-0.0 size=N/A time=00:01:15.45 bitrate=N/A speed=16.3x    frame= 2048 fps=396 q=-0.0 size=N/A time=00:01:25.41 bitrate=N/A speed=16.5x    frame= 2280 fps=402 q=-0.0 size=N/A time=00:01:35.09 bitrate=N/A speed=16.8x    frame= 2507 fps=405 q=-0.0 size=N/A time=00:01:44.56 bitrate=N/A speed=16.9x    frame= 2751 fps=410 q=-0.0 size=N/A time=00:01:54.73 bitrate=N/A speed=17.1x    frame= 2989 fps=413 q=-0.0 size=N/A time=00:02:04.66 bitrate=N/A speed=17.2x    frame= 3263 fps=421 q=-0.0 size=N/A time=00:02:16.09 bitrate=N/A speed=17.6x    frame= 3529 fps=427 q=-0.0 size=N/A time=00:02:27.18 bitrate=N/A speed=17.8x    frame= 3803 fps=433 q=-0.0 size=N/A time=00:02:38.61 bitrate=N/A speed=  18x    frame= 4080 fps=439 q=-0.0 size=N/A time=00:02:50.17 bitrate=N/A speed=18.3x    frame= 4346 fps=443 q=-0.0 size=N/A time=00:03:01.26 bitrate=N/A speed=18.5x    frame= 4585 fps=444 q=-0.0 size=N/A time=00:03:11.23 bitrate=N/A speed=18.5x    frame= 4827 fps=445 q=-0.0 size=N/A time=00:03:21.32 bitrate=N/A speed=18.5x    frame= 5069 fps=446 q=-0.0 size=N/A time=00:03:31.41 bitrate=N/A speed=18.6x    frame= 5335 fps=449 q=-0.0 size=N/A time=00:03:42.51 bitrate=N/A speed=18.7x    frame= 5581 fps=450 q=-0.0 size=N/A time=00:03:52.77 bitrate=N/A speed=18.8x    frame= 5855 fps=453 q=-0.0 size=N/A time=00:04:04.24 bitrate=N/A speed=18.9x    frame= 6136 fps=457 q=-0.0 size=N/A time=00:04:15.92 bitrate=N/A speed=19.1x    frame= 6387 fps=458 q=-0.0 size=N/A time=00:04:26.39 bitrate=N/A speed=19.1x    frame= 6623 fps=458 q=-0.0 size=N/A time=00:04:36.23 bitrate=N/A speed=19.1x    frame= 6856 fps=458 q=-0.0 size=N/A time=00:04:45.95 bitrate=N/A speed=19.1x    frame= 7113 fps=459 q=-0.0 size=N/A time=00:04:56.67 bitrate=N/A speed=19.2x    frame= 7377 fps=461 q=-0.0 size=N/A time=00:05:07.68 bitrate=N/A speed=19.2x    frame= 7629 fps=462 q=-0.0 size=N/A time=00:05:18.19 bitrate=N/A speed=19.3x    frame= 7867 fps=462 q=-0.0 size=N/A time=00:05:28.11 bitrate=N/A speed=19.3x    frame= 8117 fps=462 q=-0.0 size=N/A time=00:05:38.54 bitrate=N/A speed=19.3x    frame= 8347 fps=462 q=-0.0 size=N/A time=00:05:48.13 bitrate=N/A speed=19.3x    frame= 8622 fps=464 q=-0.0 size=N/A time=00:05:59.60 bitrate=N/A speed=19.3x    frame= 8879 fps=465 q=-0.0 size=N/A time=00:06:10.32 bitrate=N/A speed=19.4x    frame= 9128 fps=465 q=-0.0 size=N/A time=00:06:20.71 bitrate=N/A speed=19.4x    frame= 9386 fps=466 q=-0.0 size=N/A time=00:06:31.47 bitrate=N/A speed=19.5x    frame= 9616 fps=466 q=-0.0 size=N/A time=00:06:41.06 bitrate=N/A speed=19.4x    frame= 9853 fps=466 q=-0.0 size=N/A time=00:06:50.95 bitrate=N/A speed=19.4x    frame=10126 fps=467 q=-0.0 size=N/A time=00:07:02.33 bitrate=N/A speed=19.5x    frame=10350 fps=466 q=-0.0 size=N/A time=00:07:11.68 bitrate=N/A speed=19.4x    frame=10572 fps=465 q=-0.0 size=N/A time=00:07:20.94 bitrate=N/A speed=19.4x    frame=10806 fps=465 q=-0.0 size=N/A time=00:07:30.70 bitrate=N/A speed=19.4x    frame=10989 fps=463 q=-0.0 size=N/A time=00:07:38.33 bitrate=N/A speed=19.3x    frame=11247 fps=464 q=-0.0 size=N/A time=00:07:49.09 bitrate=N/A speed=19.3x    frame=11438 fps=462 q=-0.0 size=N/A time=00:07:57.05 bitrate=N/A speed=19.3x    frame=11655 fps=461 q=-0.0 size=N/A time=00:08:06.11 bitrate=N/A speed=19.2x    frame=11912 fps=462 q=-0.0 size=N/A time=00:08:16.82 bitrate=N/A speed=19.3x    frame=12152 fps=462 q=-0.0 size=N/A time=00:08:26.83 bitrate=N/A speed=19.3x    frame=12394 fps=462 q=-0.0 size=N/A time=00:08:36.93 bitrate=N/A speed=19.3x    frame=12645 fps=462 q=-0.0 size=N/A time=00:08:47.40 bitrate=N/A speed=19.3x    frame=12912 fps=463 q=-0.0 size=N/A time=00:08:58.53 bitrate=N/A speed=19.3x    frame=13174 fps=464 q=-0.0 size=N/A time=00:09:09.46 bitrate=N/A speed=19.4x    frame=13439 fps=465 q=-0.0 size=N/A time=00:09:20.51 bitrate=N/A speed=19.4x    frame=13702 fps=466 q=-0.0 size=N/A time=00:09:31.48 bitrate=N/A speed=19.4x    frame=13973 fps=467 q=-0.0 size=N/A time=00:09:42.79 bitrate=N/A speed=19.5x    frame=14228 fps=467 q=-0.0 size=N/A time=00:09:53.42 bitrate=N/A speed=19.5x    frame=14478 fps=468 q=-0.0 size=N/A time=00:10:03.85 bitrate=N/A speed=19.5x    frame=14735 fps=468 q=-0.0 size=N/A time=00:10:14.57 bitrate=N/A speed=19.5x    frame=15008 fps=469 q=-0.0 size=N/A time=00:10:25.95 bitrate=N/A speed=19.6x    frame=15274 fps=470 q=-0.0 size=N/A time=00:10:37.05 bitrate=N/A speed=19.6x    frame=15546 fps=471 q=-0.0 size=N/A time=00:10:48.39 bitrate=N/A speed=19.6x    frame=15740 fps=469 q=-0.0 size=N/A time=00:10:56.48 bitrate=N/A speed=19.6x    frame=15965 fps=469 q=-0.0 size=N/A time=00:11:05.87 bitrate=N/A speed=19.6x    frame=16215 fps=469 q=-0.0 size=N/A time=00:11:16.30 bitrate=N/A speed=19.6x    frame=16446 fps=469 q=-0.0 size=N/A time=00:11:25.93 bitrate=N/A speed=19.6x    frame=16694 fps=469 q=-0.0 size=N/A time=00:11:36.27 bitrate=N/A speed=19.6x    frame=16962 fps=470 q=-0.0 size=N/A time=00:11:47.45 bitrate=N/A speed=19.6x    frame=17212 fps=470 q=-0.0 size=N/A time=00:11:57.88 bitrate=N/A speed=19.6x    frame=17487 fps=471 q=-0.0 size=N/A time=00:12:09.35 bitrate=N/A speed=19.6x    frame=17680 fps=470 q=-0.0 size=N/A time=00:12:17.40 bitrate=N/A speed=19.6x    frame=17905 fps=469 q=-0.0 size=N/A time=00:12:26.78 bitrate=N/A speed=19.6x    frame=18166 fps=469 q=-0.0 size=N/A time=00:12:37.67 bitrate=N/A speed=19.6x    frame=18408 fps=470 q=-0.0 size=N/A time=00:12:47.76 bitrate=N/A speed=19.6x    frame=18673 fps=470 q=-0.0 size=N/A time=00:12:58.81 bitrate=N/A speed=19.6x    frame=18926 fps=470 q=-0.0 size=N/A time=00:13:09.37 bitrate=N/A speed=19.6x    frame=19149 fps=470 q=-0.0 size=N/A time=00:13:18.67 bitrate=N/A speed=19.6x    frame=19344 fps=469 q=-0.0 size=N/A time=00:13:26.80 bitrate=N/A speed=19.6x    frame=19600 fps=469 q=-0.0 size=N/A time=00:13:37.48 bitrate=N/A speed=19.6x    frame=19826 fps=469 q=-0.0 size=N/A time=00:13:46.90 bitrate=N/A speed=19.5x    frame=20026 fps=468 q=-0.0 size=N/A time=00:13:55.25 bitrate=N/A speed=19.5x    frame=20262 fps=468 q=-0.0 size=N/A time=00:14:05.09 bitrate=N/A speed=19.5x    frame=20503 fps=468 q=-0.0 size=N/A time=00:14:15.14 bitrate=N/A speed=19.5x    frame=20724 fps=467 q=-0.0 size=N/A time=00:14:24.36 bitrate=N/A speed=19.5x    frame=20982 fps=468 q=-0.0 size=N/A time=00:14:35.12 bitrate=N/A speed=19.5x    frame=21204 fps=467 q=-0.0 size=N/A time=00:14:44.38 bitrate=N/A speed=19.5x    frame=21448 fps=467 q=-0.0 size=N/A time=00:14:54.56 bitrate=N/A speed=19.5x    frame=21679 fps=467 q=-0.0 size=N/A time=00:15:04.19 bitrate=N/A speed=19.5x    frame=21919 fps=467 q=-0.0 size=N/A time=00:15:14.20 bitrate=N/A speed=19.5x    frame=22186 fps=467 q=-0.0 size=N/A time=00:15:25.34 bitrate=N/A speed=19.5x    frame=22413 fps=467 q=-0.0 size=N/A time=00:15:34.85 bitrate=N/A speed=19.5x    frame=22672 fps=468 q=-0.0 size=N/A time=00:15:45.61 bitrate=N/A speed=19.5x    frame=22937 fps=468 q=-0.0 size=N/A time=00:15:56.66 bitrate=N/A speed=19.5x    frame=23198 fps=468 q=-0.0 size=N/A time=00:16:07.54 bitrate=N/A speed=19.5x    frame=23430 fps=468 q=-0.0 size=N/A time=00:16:17.22 bitrate=N/A speed=19.5x    frame=23673 fps=468 q=-0.0 size=N/A time=00:16:27.36 bitrate=N/A speed=19.5x    frame=23908 fps=468 q=-0.0 size=N/A time=00:16:37.16 bitrate=N/A speed=19.5x    frame=24122 fps=468 q=-0.0 size=N/A time=00:16:46.08 bitrate=N/A speed=19.5x    frame=24372 fps=468 q=-0.0 size=N/A time=00:16:56.51 bitrate=N/A speed=19.5x    frame=24584 fps=467 q=-0.0 size=N/A time=00:17:05.35 bitrate=N/A speed=19.5x    frame=24826 fps=467 q=-0.0 size=N/A time=00:17:15.45 bitrate=N/A speed=19.5x    frame=25095 fps=468 q=-0.0 size=N/A time=00:17:26.67 bitrate=N/A speed=19.5x    frame=25348 fps=468 q=-0.0 size=N/A time=00:17:37.22 bitrate=N/A speed=19.5x    frame=25603 fps=468 q=-0.0 size=N/A time=00:17:47.85 bitrate=N/A speed=19.5x    frame=25847 fps=468 q=-0.0 size=N/A time=00:17:58.07 bitrate=N/A speed=19.5x    frame=26075 fps=468 q=-0.0 size=N/A time=00:18:07.54 bitrate=N/A speed=19.5x    frame=26303 fps=468 q=-0.0 size=N/A time=00:18:17.05 bitrate=N/A speed=19.5x    frame=26451 fps=466 q=-0.0 size=N/A time=00:18:23.22 bitrate=N/A speed=19.4x    frame=26711 fps=466 q=-0.0 size=N/A time=00:18:34.07 bitrate=N/A speed=19.5x    frame=26984 fps=467 q=-0.0 size=N/A time=00:18:45.45 bitrate=N/A speed=19.5x    frame=27225 fps=467 q=-0.0 size=N/A time=00:18:55.50 bitrate=N/A speed=19.5x    frame=27481 fps=467 q=-0.0 size=N/A time=00:19:06.18 bitrate=N/A speed=19.5x    frame=27744 fps=468 q=-0.0 size=N/A time=00:19:17.15 bitrate=N/A speed=19.5x    frame=28011 fps=468 q=-0.0 size=N/A time=00:19:28.29 bitrate=N/A speed=19.5x    frame=28273 fps=469 q=-0.0 size=N/A time=00:19:39.21 bitrate=N/A speed=19.5x    frame=28541 fps=469 q=-0.0 size=N/A time=00:19:50.39 bitrate=N/A speed=19.6x    frame=28826 fps=470 q=-0.0 size=N/A time=00:20:02.28 bitrate=N/A speed=19.6x    frame=29095 fps=470 q=-0.0 size=N/A time=00:20:13.50 bitrate=N/A speed=19.6x    frame=29353 fps=470 q=-0.0 size=N/A time=00:20:24.26 bitrate=N/A speed=19.6x    frame=29601 fps=470 q=-0.0 size=N/A time=00:20:34.60 bitrate=N/A speed=19.6x    frame=29860 fps=471 q=-0.0 size=N/A time=00:20:45.41 bitrate=N/A speed=19.6x    frame=30129 fps=471 q=-0.0 size=N/A time=00:20:56.63 bitrate=N/A speed=19.6x    frame=30386 fps=471 q=-0.0 size=N/A time=00:21:07.34 bitrate=N/A speed=19.7x    frame=30666 fps=472 q=-0.0 size=N/A time=00:21:19.02 bitrate=N/A speed=19.7x    frame=30935 fps=472 q=-0.0 size=N/A time=00:21:30.24 bitrate=N/A speed=19.7x    frame=31193 fps=472 q=-0.0 size=N/A time=00:21:41.00 bitrate=N/A speed=19.7x    frame=31449 fps=473 q=-0.0 size=N/A time=00:21:51.68 bitrate=N/A speed=19.7x    frame=31728 fps=473 q=-0.0 size=N/A time=00:22:03.32 bitrate=N/A speed=19.7x    frame=31960 fps=473 q=-0.0 size=N/A time=00:22:12.99 bitrate=N/A speed=19.7x    frame=32212 fps=473 q=-0.0 size=N/A time=00:22:23.50 bitrate=N/A speed=19.7x    frame=32468 fps=473 q=-0.0 size=N/A time=00:22:34.18 bitrate=N/A speed=19.7x    frame=32706 fps=473 q=-0.0 size=N/A time=00:22:44.11 bitrate=N/A speed=19.7x    frame=32923 fps=473 q=-0.0 size=N/A time=00:22:53.16 bitrate=N/A speed=19.7x    frame=33106 fps=472 q=-0.0 size=N/A time=00:23:00.79 bitrate=N/A speed=19.7x    frame=33313 fps=471 q=-0.0 size=N/A time=00:23:09.42 bitrate=N/A speed=19.7x    frame=33542 fps=471 q=-0.0 size=N/A time=00:23:18.98 bitrate=N/A speed=19.7x    frame=33742 fps=471 q=-0.0 size=N/A time=00:23:27.32 bitrate=N/A speed=19.6x    frame=33931 fps=470 q=-0.0 size=N/A time=00:23:35.20 bitrate=N/A speed=19.6x    frame=34157 fps=470 q=-0.0 size=N/A time=00:23:44.63 bitrate=N/A speed=19.6x    frame=34398 fps=470 q=-0.0 size=N/A time=00:23:54.68 bitrate=N/A speed=19.6x    [Parsed_psnr_10 @ 00000242cbe9f0c0] PSNR y:47.708666 u:50.422043 v:50.163920 average:48.411459 min:29.418576 max:inf
[out#0/null @ 00000242c4efc040] video:14827KiB audio:269856KiB subtitle:0KiB other streams:0KiB global headers:0KiB muxing overhead: unknown
frame=34506 fps=470 q=-0.0 Lsize=N/A time=00:23:59.18 bitrate=N/A speed=19.6x    
